# Blender 5.1.0
# www.blender.org
mtllib multicube.mtl
o Cube
v 1.000000 1.000000 -1.000000
v 1.000000 -1.000000 -1.000000
v 1.000000 1.000000 1.000000
v 1.000000 -1.000000 1.000000
v -1.000000 1.000000 -1.000000
v -1.000000 -1.000000 -1.000000
v -1.000000 1.000000 1.000000
v -1.000000 -1.000000 1.000000
v -1.000000 -1.000000 -0.333333
v -1.000000 -1.000000 0.333333
v 0.333333 -1.000000 -1.000000
v -0.333333 -1.000000 -1.000000
v 1.000000 0.333333 -1.000000
v 1.000000 -0.333333 -1.000000
v -1.000000 -0.333333 1.000000
v -1.000000 0.333333 1.000000
v 1.000000 0.333333 1.000000
v 1.000000 -0.333333 1.000000
v -1.000000 0.333333 -1.000000
v -1.000000 -0.333333 -1.000000
v 0.333333 1.000000 1.000000
v -0.333333 1.000000 1.000000
v 1.000000 1.000000 -0.333333
v 1.000000 1.000000 0.333333
v -0.333333 -1.000000 1.000000
v 0.333333 -1.000000 1.000000
v -1.000000 1.000000 0.333333
v -1.000000 1.000000 -0.333333
v -0.333333 1.000000 -1.000000
v 0.333333 1.000000 -1.000000
v 1.000000 -1.000000 0.333333
v 1.000000 -1.000000 -0.333333
v -0.333333 -0.333333 -1.000000
v 0.333333 -0.333333 -1.000000
v -0.333333 0.333333 -1.000000
v 0.333333 0.333333 -1.000000
v 1.000000 -0.333333 -0.333333
v 1.000000 -0.333333 0.333333
v 1.000000 0.333333 -0.333333
v 1.000000 0.333333 0.333333
v -0.333333 -1.000000 -0.333333
v -0.333333 -1.000000 0.333333
v 0.333333 -1.000000 -0.333333
v 0.333333 -1.000000 0.333333
v -1.000000 -0.333333 0.333333
v -1.000000 -0.333333 -0.333333
v -1.000000 0.333333 0.333333
v -1.000000 0.333333 -0.333333
v 0.333333 -0.333333 1.000000
v -0.333333 -0.333333 1.000000
v 0.333333 0.333333 1.000000
v -0.333333 0.333333 1.000000
v 0.333333 1.000000 -0.333333
v 0.333333 1.000000 0.333333
v -0.333333 1.000000 -0.333333
v -0.333333 1.000000 0.333333
vn -0.0000 1.0000 -0.0000
vn -0.0000 -0.0000 1.0000
vn -1.0000 -0.0000 -0.0000
vn -0.0000 -1.0000 -0.0000
vn 1.0000 -0.0000 -0.0000
vn -0.0000 -0.0000 -1.0000
vt 0.791667 0.666667
vt 0.875000 0.666667
vt 0.875000 0.750000
vt 0.791667 0.750000
vt 0.541667 0.916667
vt 0.625000 0.916667
vt 0.625000 1.000000
vt 0.541667 1.000000
vt 0.541667 0.166667
vt 0.625000 0.166667
vt 0.625000 0.250000
vt 0.541667 0.250000
vt 0.291667 0.666667
vt 0.375000 0.666667
vt 0.375000 0.750000
vt 0.291667 0.750000
vt 0.541667 0.666667
vt 0.625000 0.666667
vt 0.625000 0.750000
vt 0.541667 0.750000
vt 0.541667 0.416667
vt 0.625000 0.416667
vt 0.625000 0.500000
vt 0.541667 0.500000
vt 0.375000 0.416667
vt 0.458333 0.416667
vt 0.458333 0.500000
vt 0.375000 0.500000
vt 0.375000 0.250000
vt 0.458333 0.250000
vt 0.458333 0.333333
vt 0.375000 0.333333
vt 0.541667 0.333333
vt 0.625000 0.333333
vt 0.458333 0.666667
vt 0.458333 0.750000
vt 0.458333 0.583333
vt 0.375000 0.583333
vt 0.541667 0.583333
vt 0.625000 0.583333
vt 0.125000 0.666667
vt 0.208333 0.666667
vt 0.208333 0.750000
vt 0.125000 0.750000
vt 0.125000 0.500000
vt 0.208333 0.500000
vt 0.208333 0.583333
vt 0.125000 0.583333
vt 0.291667 0.500000
vt 0.291667 0.583333
vt 0.375000 0.166667
vt 0.458333 0.166667
vt 0.375000 0.000000
vt 0.458333 0.000000
vt 0.458333 0.083333
vt 0.375000 0.083333
vt 0.541667 0.000000
vt 0.541667 0.083333
vt 0.625000 0.000000
vt 0.625000 0.083333
vt 0.375000 0.916667
vt 0.458333 0.916667
vt 0.458333 1.000000
vt 0.375000 1.000000
vt 0.458333 0.833333
vt 0.375000 0.833333
vt 0.541667 0.833333
vt 0.625000 0.833333
vt 0.708333 0.666667
vt 0.708333 0.750000
vt 0.708333 0.500000
vt 0.708333 0.583333
vt 0.791667 0.500000
vt 0.791667 0.583333
vt 0.875000 0.500000
vt 0.875000 0.583333
s 0
usemtl Material
f 56/1/1 27/2/1 7/3/1 22/4/1
f 52/5/2 22/6/2 7/7/2 16/8/2
f 48/9/3 28/10/3 5/11/3 19/12/3
f 44/13/4 31/14/4 4/15/4 26/16/4
f 40/17/5 24/18/5 3/19/5 17/20/5
f 36/21/6 30/22/6 1/23/6 13/24/6
f 11/25/6 34/26/6 14/27/6 2/28/6
f 34/26/6 36/21/6 13/24/6 14/27/6
f 6/29/6 20/30/6 33/31/6 12/32/6
f 12/32/6 33/31/6 34/26/6 11/25/6
f 20/30/6 19/12/6 35/33/6 33/31/6
f 33/31/6 35/33/6 36/21/6 34/26/6
f 19/12/6 5/11/6 29/34/6 35/33/6
f 35/33/6 29/34/6 30/22/6 36/21/6
f 31/14/5 38/35/5 18/36/5 4/15/5
f 38/35/5 40/17/5 17/20/5 18/36/5
f 2/28/5 14/27/5 37/37/5 32/38/5
f 32/38/5 37/37/5 38/35/5 31/14/5
f 14/27/5 13/24/5 39/39/5 37/37/5
f 37/37/5 39/39/5 40/17/5 38/35/5
f 13/24/5 1/23/5 23/40/5 39/39/5
f 39/39/5 23/40/5 24/18/5 40/17/5
f 10/41/4 42/42/4 25/43/4 8/44/4
f 42/42/4 44/13/4 26/16/4 25/43/4
f 6/45/4 12/46/4 41/47/4 9/48/4
f 9/48/4 41/47/4 42/42/4 10/41/4
f 12/46/4 11/49/4 43/50/4 41/47/4
f 41/47/4 43/50/4 44/13/4 42/42/4
f 11/49/4 2/28/4 32/38/4 43/50/4
f 43/50/4 32/38/4 31/14/4 44/13/4
f 9/51/3 46/52/3 20/30/3 6/29/3
f 46/52/3 48/9/3 19/12/3 20/30/3
f 8/53/3 15/54/3 45/55/3 10/56/3
f 10/56/3 45/55/3 46/52/3 9/51/3
f 15/54/3 16/57/3 47/58/3 45/55/3
f 45/55/3 47/58/3 48/9/3 46/52/3
f 16/57/3 7/59/3 27/60/3 47/58/3
f 47/58/3 27/60/3 28/10/3 48/9/3
f 25/61/2 50/62/2 15/63/2 8/64/2
f 50/62/2 52/5/2 16/8/2 15/63/2
f 4/15/2 18/36/2 49/65/2 26/66/2
f 26/66/2 49/65/2 50/62/2 25/61/2
f 18/36/2 17/20/2 51/67/2 49/65/2
f 49/65/2 51/67/2 52/5/2 50/62/2
f 17/20/2 3/19/2 21/68/2 51/67/2
f 51/67/2 21/68/2 22/6/2 52/5/2
f 24/18/1 54/69/1 21/70/1 3/19/1
f 54/69/1 56/1/1 22/4/1 21/70/1
f 1/23/1 30/71/1 53/72/1 23/40/1
f 23/40/1 53/72/1 54/69/1 24/18/1
f 30/71/1 29/73/1 55/74/1 53/72/1
f 53/72/1 55/74/1 56/1/1 54/69/1
f 29/73/1 5/75/1 28/76/1 55/74/1
f 55/74/1 28/76/1 27/2/1 56/1/1
